<svg width="1440" height="700" viewBox="0 0 1440 700" fill="none" xmlns="http://www.w3.org/2000/svg">
<g clip-path="url(#clip0)">
<path d="M2588 -39H-37.9995V1438H2588V-39Z" fill="#EB738D"/>
<g opacity="0.8">
<path opacity="0.8" d="M-45.8782 1988.26H-686.28V-438.748H-45.8782C624.367 -438.748 1167.73 104.556 1167.73 774.758C1167.73 1444.96 624.367 1988.26 -45.8782 1988.26Z" fill="#9C339C"/>
</g>
<path opacity="0.8" d="M1320.86 1606.35C1818.63 1606.35 2222.15 1202.86 2222.15 705.134C2222.15 207.406 1818.63 -196.082 1320.86 -196.082C823.089 -196.082 419.566 207.406 419.566 705.134C419.566 1202.86 823.089 1606.35 1320.86 1606.35Z" fill="url(#paint0_radial)"/>
<path opacity="0.5" d="M2801.08 1502.95H1262.12L2031.59 -35.8681L2801.08 1502.95Z" fill="url(#paint1_linear)"/>
</g>
<defs>
<radialGradient id="paint0_radial" cx="0" cy="0" r="1" gradientUnits="userSpaceOnUse" gradientTransform="translate(1320.86 705.134) scale(901.292 901.216)">
<stop stop-color="#00B4CC" stop-opacity="0"/>
<stop offset="0.519" stop-color="#00B4CC" stop-opacity="0.65"/>
<stop offset="0.9996" stop-color="#00BED6" stop-opacity="0.95"/>
</radialGradient>
<linearGradient id="paint1_linear" x1="1262.12" y1="733.539" x2="2801.08" y2="733.539" gradientUnits="userSpaceOnUse">
<stop offset="0.0292" stop-color="white"/>
<stop offset="0.4759" stop-color="#FFAFEB"/>
<stop offset="1" stop-color="#00B4CC"/>
</linearGradient>
<clipPath id="clip0">
<rect width="2626" height="1477" fill="white" transform="translate(-38 -39)"/>
</clipPath>
</defs>
</svg>
